   <svg xmlns="http://www.w3.org/2000/svg" xmlns:xlink="http://www.w3.org/1999/xlink"
                              viewBox="0 0 850 850" width="850" height="850" preserveAspectRatio="xMidYMid meet" style="
								width: 100%;
								height: 100%;
								transform: translate3d(0px, 0px, 0px);
								content-visibility: visible;
							">
                              <defs>
                                   <clipPath id="__lottie_element_2">
                                        <rect width="850" height="850" x="0" y="0"></rect>
                                   </clipPath>
                              </defs>
                              <g clip-path="url(#__lottie_element_2)">
                                   <g transform="matrix(1,0,0,1,425,425)" opacity="1" style="display: block">
                                        <g opacity="1" transform="matrix(1,0,0,1,0,0)">
                                             <path stroke-linecap="round" stroke-linejoin="round" fill-opacity="0"
                                                  stroke="rgb(83,188,148)" stroke-opacity="1" stroke-width="60"
                                                  d=" M324,-250 C324,-250 3,-250 3,-250 C3,-250 -324,-250 -324,-250">
                                             </path>
                                        </g>
                                   </g>
                                   <g transform="matrix(1,0,0,1,425,425)" opacity="1" style="display: block">
                                        <g opacity="1" transform="matrix(1,0,0,1,0,0)">
                                             <path stroke-linecap="round" stroke-linejoin="round" fill-opacity="0"
                                                  stroke="rgb(83,188,148)" stroke-opacity="1" stroke-width="60"
                                                  d=" M-324,250 C-324,250 3,250 3,250 C3,250 324,250 324,250"></path>
                                        </g>
                                   </g>
                                   <g transform="matrix(1,0,0,1,425,425)" opacity="1" style="display: block">
                                        <g opacity="1" transform="matrix(1,0,0,1,0,0)">
                                             <path stroke-linecap="round" stroke-linejoin="miter" fill-opacity="0"
                                                  stroke-miterlimit="10" stroke="rgb(83,188,148)" stroke-opacity="1"
                                                  stroke-width="60" d=" M-324,0 C-324,0 324,0 324,0"></path>
                                        </g>
                                   </g>
                              </g>
                         </svg>